<?xml version="1.0" standalone="no"?>
<!DOCTYPE svg PUBLIC "-//W3C//DTD SVG 20010904//EN"
 "http://www.w3.org/TR/2001/REC-SVG-20010904/DTD/svg10.dtd">
<svg version="1.0" xmlns="http://www.w3.org/2000/svg"
 width="500.000000pt" height="500.000000pt" viewBox="0 0 500.000000 500.000000"
 preserveAspectRatio="xMidYMid meet">
<metadata>
Created by potrace 1.11, written by Peter Selinger 2001-2013
</metadata>
<g transform="translate(0.000000,500.000000) scale(0.100000,-0.100000)"
fill="#000000" stroke="none">
<path d="M0 2500 l0 -2500 2500 0 2500 0 0 2500 0 2500 -2500 0 -2500 0 0
-2500z m945 1216 c70 -18 144 -52 151 -69 3 -8 4 -40 2 -71 l-3 -56 -49 35
c-70 49 -136 69 -231 69 -140 -1 -240 -67 -282 -187 -25 -73 -25 -271 0 -344
41 -118 142 -186 277 -187 96 0 144 14 225 69 l66 44 -3 -67 -3 -67 -59 -32
c-81 -42 -157 -57 -267 -51 -78 5 -100 11 -164 42 -153 76 -225 210 -225 421
0 150 33 250 110 337 41 48 133 102 196 117 59 14 203 12 259 -3z m867 -18
c158 -73 238 -218 238 -433 0 -166 -40 -275 -132 -361 -27 -25 -74 -57 -106
-72 -51 -24 -68 -27 -172 -27 -104 0 -121 3 -172 27 -111 52 -190 150 -223
273 -19 74 -20 242 -1 312 40 151 134 255 269 299 27 9 77 13 142 11 83 -2
110 -7 157 -29z m538 -288 c0 -175 4 -320 11 -349 23 -110 85 -156 209 -155
79 0 107 9 153 52 51 48 57 94 57 439 l0 313 65 0 65 0 0 -307 c0 -335 -6
-386 -54 -467 -58 -99 -159 -142 -315 -133 -112 5 -170 27 -226 83 -82 82 -95
155 -95 537 l0 287 65 0 65 0 0 -300z m1135 -60 l190 -359 3 360 2 359 65 0
65 0 0 -445 0 -446 -87 3 -88 3 -190 359 -190 360 -3 -362 -2 -362 -60 0 -60
0 0 445 0 445 83 0 82 0 190 -360z m1185 310 l0 -50 -155 0 -155 0 0 -395 0
-395 -65 0 -65 0 0 395 0 395 -160 0 -160 0 0 50 0 50 380 0 380 0 0 -50z
m-2598 -1392 c158 -73 238 -218 238 -433 0 -166 -40 -275 -132 -361 -27 -25
-74 -57 -106 -72 -51 -24 -68 -27 -172 -27 -104 0 -121 3 -172 27 -111 52
-190 150 -223 273 -19 74 -20 242 -1 312 40 151 134 255 269 299 27 9 77 13
142 11 83 -2 110 -7 157 -29z m-990 -16 c127 -42 209 -122 246 -241 26 -84 23
-286 -5 -363 -45 -121 -116 -189 -243 -230 -55 -18 -95 -22 -272 -26 l-208 -4
0 447 0 447 208 -4 c178 -4 216 -8 274 -26z m1553 -336 c50 -200 93 -361 96
-358 4 4 46 168 94 365 l87 358 71 -3 71 -3 91 -365 c89 -351 92 -363 103
-325 6 22 48 187 93 368 l81 327 65 0 c48 0 64 -3 61 -12 -3 -7 -54 -208 -114
-445 l-109 -433 -77 0 -77 0 -10 36 c-5 19 -47 191 -93 380 l-83 346 -94 -381
-94 -381 -78 0 -78 0 -10 38 c-21 79 -211 842 -211 847 0 3 28 5 63 5 l63 0
89 -364z m1430 4 l190 -359 3 360 2 359 65 0 65 0 0 -445 0 -446 -87 3 -88 3
-190 359 -190 360 -3 -362 -2 -362 -60 0 -60 0 0 445 0 445 83 0 82 0 190
-360z"/>
<path d="M1552 3612 c-68 -25 -123 -78 -159 -156 -26 -57 -28 -69 -28 -191 0
-122 2 -134 29 -192 38 -82 97 -137 172 -159 103 -30 199 -2 270 79 61 70 79
130 79 272 0 142 -18 202 -79 272 -73 83 -181 111 -284 75z"/>
<path d="M1812 2182 c-68 -25 -123 -78 -159 -156 -26 -57 -28 -69 -28 -191 0
-122 2 -134 29 -192 38 -82 97 -137 172 -159 103 -30 199 -2 270 79 61 70 79
130 79 272 0 142 -18 202 -79 272 -73 83 -181 111 -284 75z"/>
<path d="M720 1835 l0 -348 128 6 c154 7 214 24 275 77 68 60 90 125 90 265 0
140 -22 205 -90 265 -61 53 -121 70 -275 77 l-128 6 0 -348z"/>
</g>
</svg>
